<svg width="87" height="86" viewBox="0 0 87 86" fill="none" xmlns="http://www.w3.org/2000/svg">
<g filter="url(#filter0_d)">
<path d="M4 39.1613C4.00456 58.4289 18.0154 74.8344 37.0449 77.854V50.4805H27.1083V39.1613H37.0567V30.5446C36.6119 26.4617 38.0065 22.3924 40.8623 19.4406C43.718 16.4888 47.7388 14.9603 51.8343 15.2696C54.7738 15.3171 57.7061 15.5789 60.6076 16.053V25.684H55.6569C53.9526 25.4608 52.2391 26.0237 50.9991 27.2141C49.7591 28.4046 49.1269 30.0938 49.2806 31.8058V39.1613H60.1337L58.3986 50.4844H49.2806V77.854C69.8606 74.6016 84.292 55.8063 82.1199 35.0843C79.9478 14.3624 61.9325 -1.03182 41.1254 0.0540687C20.3183 1.13996 4.00331 18.3258 4 39.1613Z" fill="#F0F7F4"/>
<path d="M36.0449 76.6648C18.0928 73.254 5.00435 57.5444 5 39.161C5.00322 18.858 20.9016 2.11088 41.1775 1.05271C61.4534 -0.00545869 79.0087 14.9957 81.1254 35.1886C83.2011 54.9911 69.7167 72.9882 50.2806 76.6656V51.4844H58.3986H59.257L59.387 50.6358L61.1221 39.3128L61.2986 38.1613H60.1337H50.2806V31.8058V31.761L50.2766 31.7164C50.1501 30.3067 50.6706 28.9158 51.6917 27.9355C52.7127 26.9553 54.1236 26.4918 55.5271 26.6756L55.5917 26.684H55.6569H60.6076H61.6076V25.684V16.053V15.2031L60.7688 15.066C57.829 14.5857 54.8581 14.3197 51.8796 14.2702C47.4981 13.9482 43.199 15.587 40.1435 18.7453C37.094 21.8975 35.5982 26.238 36.0567 30.598V38.1613H27.1083H26.1083V39.1613V50.4805V51.4805H27.1083H36.0449V76.6648Z" stroke="black" stroke-width="2"/>
</g>
<defs>
<filter id="filter0_d" x="0" y="0" width="86.3361" height="85.854" filterUnits="userSpaceOnUse" color-interpolation-filters="sRGB">
<feFlood flood-opacity="0" result="BackgroundImageFix"/>
<feColorMatrix in="SourceAlpha" type="matrix" values="0 0 0 0 0 0 0 0 0 0 0 0 0 0 0 0 0 0 127 0"/>
<feOffset dy="4"/>
<feGaussianBlur stdDeviation="2"/>
<feColorMatrix type="matrix" values="0 0 0 0 0 0 0 0 0 0 0 0 0 0 0 0 0 0 0.25 0"/>
<feBlend mode="normal" in2="BackgroundImageFix" result="effect1_dropShadow"/>
<feBlend mode="normal" in="SourceGraphic" in2="effect1_dropShadow" result="shape"/>
</filter>
</defs>
</svg>
