<svg width="74" height="74" viewBox="0 0 74 74" fill="none" xmlns="http://www.w3.org/2000/svg">
<g filter="url(#filter0_d)">
<path d="M36.6906 65.3101L10.1786 58.7066L4.25928 0.310059H69.2593L63.3483 58.7103L36.7072 65.3101H36.6906ZM18.9535 37.494L19.8526 47.9364L36.7655 52.5402L53.3787 48.3881L57.1459 12.2458H16.3518L17.0095 19.3446H48.3502L47.576 26.7165H27.0207L27.7617 33.6806H46.9099L45.7777 43.2233L36.7697 45.4087L27.6118 43.2233L27.0291 37.5049H18.9535V37.494Z" fill="#FFF281"/>
<path d="M18.9535 37.0049V37.4725L18.4535 37.494V37.5049V38.0049H18.4956L19.3545 47.9793L19.3844 48.3272L19.7213 48.4189L36.6342 53.0227L36.7601 53.057L36.8868 53.0253L53.4999 48.8731L53.8397 48.7882L53.876 48.4399L57.6432 12.2976L57.7007 11.7458H57.1459H16.3518H15.8034L15.8539 12.2919L16.5117 19.3907L16.5537 19.8446H17.0095H47.7949L47.1257 26.2165H27.0207H26.4647L26.5235 26.7694L27.2645 33.7335L27.3121 34.1806H27.7617H46.3471L45.3221 42.8193L36.7687 44.8944L28.0732 42.8194L27.5265 37.4543L27.4807 37.0049H27.0291H18.9535ZM36.6992 64.7969L10.6406 58.3064L4.81252 0.810059H68.7061L62.8863 58.3096L36.6992 64.7969Z" stroke="black"/>
</g>
<defs>
<filter id="filter0_d" x="0.259277" y="0.310059" width="73" height="73" filterUnits="userSpaceOnUse" color-interpolation-filters="sRGB">
<feFlood flood-opacity="0" result="BackgroundImageFix"/>
<feColorMatrix in="SourceAlpha" type="matrix" values="0 0 0 0 0 0 0 0 0 0 0 0 0 0 0 0 0 0 127 0"/>
<feOffset dy="4"/>
<feGaussianBlur stdDeviation="2"/>
<feColorMatrix type="matrix" values="0 0 0 0 0 0 0 0 0 0 0 0 0 0 0 0 0 0 0.25 0"/>
<feBlend mode="normal" in2="BackgroundImageFix" result="effect1_dropShadow"/>
<feBlend mode="normal" in="SourceGraphic" in2="effect1_dropShadow" result="shape"/>
</filter>
</defs>
</svg>
