<svg width="64" height="64" viewBox="0 0 64 64" fill="none" xmlns="http://www.w3.org/2000/svg">
<g filter="url(#filter0_d)">
<path d="M31.7012 55.3101L9.26792 49.7225L4.25928 0.310059H59.2593L54.2577 49.7256L31.7153 55.3101H31.7012ZM16.6928 31.7734L17.4536 40.6093L31.7646 44.5048L45.8219 40.9914L49.0095 10.4095H14.4914L15.0479 16.4162H41.567L40.9119 22.654H23.519L24.1459 28.5466H40.3483L39.3902 36.6213L31.7681 38.4704L24.0191 36.6213L23.526 31.7827H16.6928V31.7734Z" fill="#FFF281"/>
<path d="M16.6928 31.2827V31.7519L16.1928 31.7734V31.7827V32.2827H16.2348L16.9555 40.6522L16.9854 41L17.3223 41.0917L31.6332 44.9873L31.7592 45.0216L31.8858 44.9899L45.9431 41.4765L46.2829 41.3916L46.3192 41.0433L49.5068 10.4614L49.5643 9.90952H49.0095H14.4914H13.943L13.9936 10.4556L14.5501 16.4623L14.5921 16.9162H15.0479H41.0117L40.4616 22.154H23.519H22.9629L23.0218 22.7069L23.6487 28.5995L23.6963 29.0466H24.1459H39.7855L38.9347 36.2173L31.7671 37.9562L24.4805 36.2174L24.0234 31.732L23.9776 31.2827H23.526H16.6928ZM31.7085 54.7966L9.72992 49.3223L4.81252 0.810059H58.7061L53.7957 49.325L31.7085 54.7966Z" stroke="black"/>
</g>
<defs>
<filter id="filter0_d" x="0.259277" y="0.310059" width="63" height="63" filterUnits="userSpaceOnUse" color-interpolation-filters="sRGB">
<feFlood flood-opacity="0" result="BackgroundImageFix"/>
<feColorMatrix in="SourceAlpha" type="matrix" values="0 0 0 0 0 0 0 0 0 0 0 0 0 0 0 0 0 0 127 0"/>
<feOffset dy="4"/>
<feGaussianBlur stdDeviation="2"/>
<feColorMatrix type="matrix" values="0 0 0 0 0 0 0 0 0 0 0 0 0 0 0 0 0 0 0.25 0"/>
<feBlend mode="normal" in2="BackgroundImageFix" result="effect1_dropShadow"/>
<feBlend mode="normal" in="SourceGraphic" in2="effect1_dropShadow" result="shape"/>
</filter>
</defs>
</svg>
