<svg width="63" height="87" viewBox="0 0 63 87" fill="none" xmlns="http://www.w3.org/2000/svg">
<g filter="url(#filter0_d)">
<path d="M19.4724 78.3348C12.9515 78.3853 7.11027 74.3103 4.90638 68.1729C2.70249 62.0355 4.6171 55.1756 9.68077 51.0665C6.08919 48.1597 4.00249 43.7863 4.00249 39.1657C4.00249 34.5452 6.08919 30.1718 9.68077 27.2649C4.61548 23.1573 2.69971 16.2968 4.90402 10.1591C7.10833 4.02147 12.9512 -0.0525511 19.4724 0.00051224H43.4033C49.9246 -0.0525511 55.7674 4.02147 57.9717 10.1591C60.176 16.2968 58.2602 23.1573 53.1949 27.2649C58.2586 31.374 60.1732 38.234 57.9693 44.3714C55.7654 50.5088 49.9242 54.5837 43.4033 54.5328C40.3913 54.5365 37.444 53.6597 34.9237 52.0104V62.9771C34.887 71.4802 27.9755 78.3496 19.4724 78.3348ZM19.3863 54.5367C14.7471 54.61 11.0387 58.4172 11.0873 63.0567C11.136 67.6961 14.9235 71.4247 19.5631 71.4008C24.2028 71.3767 27.9514 67.609 27.952 62.9693V54.5367H19.3824H19.3863ZM43.4072 30.7351C38.7557 30.7589 35.0019 34.5447 35.0177 39.1963C35.0336 43.8478 38.813 47.608 43.4646 47.6002C48.1161 47.5923 51.8829 43.8193 51.8829 39.1677C51.8656 34.4993 48.0717 30.7264 43.4033 30.7351H43.4072ZM19.4764 30.735C16.4637 30.719 13.6713 32.3114 12.151 34.9124C10.6307 37.5134 10.6136 40.7279 12.106 43.345C13.5984 45.9621 16.3736 47.5842 19.3863 47.6003H27.952V30.735H19.4764ZM34.9237 6.93353V23.8027H43.3994C47.9329 23.8238 51.6734 20.2597 51.8711 15.7304V17.4341V15.3661C51.8517 10.7032 48.0662 6.93353 43.4033 6.93353H34.9237ZM19.4685 6.93353C16.4559 6.93353 13.672 8.54077 12.1657 11.1498C10.6594 13.7589 10.6594 16.9734 12.1657 19.5824C13.672 22.1915 16.4559 23.7987 19.4685 23.7987H27.952V6.93353H19.4685Z" fill="#FFF281"/>
<path d="M19.4733 77.8348L19.4686 77.8348C13.16 77.8836 7.50906 73.9414 5.37696 68.004C3.24486 62.0665 5.0971 55.43 9.99583 51.4548L10.4749 51.066L9.99533 50.6779C6.52105 47.8659 4.50249 43.6354 4.50249 39.1657C4.50249 34.6961 6.52105 30.4655 9.99533 27.6536L10.4751 27.2653L9.9957 26.8766C5.09545 22.9028 3.24211 16.2658 5.3746 10.3281C7.50708 4.39046 13.1595 0.449161 19.4684 0.500496V0.500512H19.4724L43.4033 0.500529L43.4073 0.500496C49.7162 0.449161 55.3686 4.39046 57.5011 10.3281C59.6336 16.2658 57.7803 22.9028 52.88 26.8766L52.4013 27.2648L52.8799 27.6532C57.7786 31.6284 59.6309 38.2649 57.4988 44.2024C55.3666 50.1399 49.7157 54.082 43.4072 54.0328L43.4027 54.0328C40.4882 54.0363 37.6362 53.188 35.1975 51.5921L34.4237 51.0857V52.0104V62.9758C34.3877 71.2028 27.7005 77.8491 19.4733 77.8348ZM19.3824 54.2887L19.3784 54.0368C14.4642 54.1144 10.5358 58.1473 10.5873 63.0619C10.6389 67.9765 14.651 71.9261 19.5657 71.9008C24.4805 71.8752 28.4514 67.8842 28.452 62.9693V62.9693V54.5367V54.0367H27.952H19.3863H19.3824V54.2887ZM52.3829 39.1658C52.3646 34.2217 48.3465 30.2259 43.4023 30.2351C38.4761 30.2615 34.501 34.2714 34.5177 39.198C34.5345 44.1253 38.538 48.1085 43.4654 48.1002C48.3928 48.0918 52.3829 44.0951 52.3829 39.1677L52.3829 39.1658ZM19.3836 48.1003H19.3863H27.952H28.452V47.6003V30.735V30.235H27.952H19.4775C16.2868 30.2186 13.3295 31.9053 11.7193 34.6601C10.1089 37.4153 10.0907 40.8204 11.6716 43.5927C13.2525 46.3649 16.1923 48.0832 19.3836 48.1003ZM34.9237 6.43353H34.4237V6.93353V23.8027V24.3027H34.9237H43.3983C47.6223 24.3217 51.1961 21.4026 52.1373 17.4341H52.3711V15.7304L52.3711 15.3661L52.3711 15.364C52.3505 10.4258 48.3415 6.43353 43.4033 6.43353H34.9237ZM27.952 24.2987H28.452V23.7987V6.93353V6.43353H27.952H19.4685C16.2772 6.43353 13.3283 8.13607 11.7327 10.8998C10.137 13.6636 10.137 17.0687 11.7327 19.8324C13.3283 22.5962 16.2772 24.2987 19.4685 24.2987H27.952Z" stroke="black"/>
</g>
<defs>
<filter id="filter0_d" x="0" y="0" width="62.8757" height="86.3353" filterUnits="userSpaceOnUse" color-interpolation-filters="sRGB">
<feFlood flood-opacity="0" result="BackgroundImageFix"/>
<feColorMatrix in="SourceAlpha" type="matrix" values="0 0 0 0 0 0 0 0 0 0 0 0 0 0 0 0 0 0 127 0"/>
<feOffset dy="4"/>
<feGaussianBlur stdDeviation="2"/>
<feColorMatrix type="matrix" values="0 0 0 0 0 0 0 0 0 0 0 0 0 0 0 0 0 0 0.25 0"/>
<feBlend mode="normal" in2="BackgroundImageFix" result="effect1_dropShadow"/>
<feBlend mode="normal" in="SourceGraphic" in2="effect1_dropShadow" result="shape"/>
</filter>
</defs>
</svg>
