<svg width="81" height="86" viewBox="0 0 81 86" fill="none" xmlns="http://www.w3.org/2000/svg">
<g filter="url(#filter0_d)">
<path d="M40.5565 0.833337C22.8345 0.830875 7.72729 14.7296 4.88986 33.6469C2.05244 52.5642 12.3226 70.9142 29.1368 76.9694C30.9477 77.3219 31.596 76.1195 31.596 75.0855C31.596 74.1572 31.5671 71.6976 31.5562 68.4272C21.5055 70.7772 19.3831 63.1867 19.3831 63.1867C18.7215 60.8247 17.299 58.7974 15.3737 57.4723C12.114 55.0478 15.6236 55.1027 15.6236 55.1027C17.9441 55.4467 19.9863 56.9335 21.1542 59.129C22.1427 61.0727 23.8082 62.5089 25.7804 63.1186C27.7527 63.7283 29.8685 63.4609 31.6576 62.3759C31.8258 60.3941 32.6411 58.5418 33.9575 57.1511C25.9387 56.168 17.507 52.8153 17.507 37.8419C17.4625 33.9691 18.7924 30.2252 21.223 27.3805C20.1232 24.0095 20.2528 20.3119 21.5852 17.0405C21.5852 17.0405 24.6167 15.9869 31.5164 21.0394C37.4339 19.2848 43.6791 19.2848 49.5967 21.0394C56.5 15.983 59.5279 17.0405 59.5279 17.0405C60.8665 20.3104 60.9961 24.0105 59.8901 27.3805C62.3296 30.2249 63.6584 33.9787 63.5988 37.8576C63.5988 52.8702 55.1599 56.168 47.1121 57.1354C48.8482 59.0548 49.7385 61.6879 49.5569 64.3656C49.5569 69.5904 49.5134 73.8047 49.5134 75.0855C49.5134 76.1312 50.1581 77.3454 52.0016 76.9616C68.8088 70.896 79.068 52.545 76.2247 33.6327C73.3815 14.7205 58.2749 0.828952 40.5565 0.833337Z" fill="#F2F2F2"/>
<path d="M21.3667 67.0603C23.2087 68.7136 26.2444 70.015 31.0585 69.0471C31.0653 70.7026 31.0762 72.1186 31.0845 73.1985C31.0911 74.055 31.096 74.7001 31.096 75.0855C31.096 75.512 30.9606 75.927 30.6932 76.1926C30.4509 76.4332 30.0264 76.6244 29.2689 76.4855C12.7234 70.5053 2.58076 52.4127 5.38433 33.7211C8.18941 15.0194 23.1103 1.33091 40.5565 1.33334L40.5567 1.33334C57.9992 1.32902 72.9194 15.0104 75.7303 33.7071C78.5398 52.3948 68.4066 70.4897 51.8661 76.4789C51.0886 76.633 50.6594 76.4424 50.4173 76.2037C50.1493 75.9393 50.0134 75.5205 50.0134 75.0855C50.0134 74.663 50.0182 73.9199 50.0245 72.9238C50.0278 72.4147 50.0314 71.8396 50.0351 71.2075C50.046 69.3442 50.0568 66.9894 50.0569 64.3823C50.2213 61.8982 49.5069 59.4462 48.0692 57.5141C51.8481 56.9749 55.7149 55.8459 58.709 53.134C61.9578 50.1916 64.0981 45.4622 64.0988 37.8615C64.1578 33.963 62.856 30.1815 60.4501 27.2694C61.5005 23.8593 61.3392 20.1452 59.9906 16.8511L59.9053 16.6427L59.6927 16.5685L59.5279 17.0405C59.6927 16.5685 59.6922 16.5683 59.6917 16.5681L59.6906 16.5677L59.6881 16.5669L59.6823 16.5649L59.6674 16.5602C59.6628 16.5587 59.6577 16.5572 59.6522 16.5556C59.6438 16.5531 59.6344 16.5504 59.6238 16.5475C59.5886 16.5379 59.5411 16.5263 59.4813 16.5144C59.3615 16.4907 59.1924 16.4662 58.9726 16.4549C58.5325 16.4323 57.8924 16.4628 57.0403 16.6562C55.3702 17.0353 52.8902 18.0391 49.5011 20.4905C43.6407 18.8011 37.4723 18.8011 31.6119 20.4906C28.2246 18.041 25.7447 17.0373 24.0742 16.6577C23.222 16.4641 22.5817 16.4332 22.1414 16.4555C21.9215 16.4666 21.7524 16.4909 21.6325 16.5145C21.5726 16.5263 21.5252 16.5378 21.49 16.5474C21.4724 16.5521 21.4579 16.5564 21.4464 16.56L21.4314 16.5647L21.4257 16.5666L21.4232 16.5675L21.4221 16.5679C21.4216 16.568 21.4211 16.5682 21.5852 17.0405L21.4211 16.5682L21.2075 16.6425L21.1221 16.8519C19.7799 20.1474 19.619 23.8588 20.6635 27.2695C18.2662 30.1811 16.9629 33.9525 17.007 37.8447C17.0075 45.4268 19.1462 50.1595 22.3885 53.1125C25.3725 55.8303 29.2236 56.9764 32.9854 57.5253C31.9986 58.8252 31.3733 60.4021 31.1852 62.0726C29.5634 62.9799 27.6842 63.1838 25.9281 62.6409C24.0929 62.0736 22.531 60.733 21.5999 58.9023L21.6 58.9023L21.5956 58.8942C20.3585 56.5685 18.1851 54.977 15.697 54.6081L15.6644 54.6032L15.6314 54.6027L15.6236 55.1027C15.6314 54.6027 15.6313 54.6027 15.6311 54.6027L15.6306 54.6027L15.6295 54.6027L15.6262 54.6027L15.6159 54.6026L15.5812 54.6027C15.552 54.6029 15.5112 54.6036 15.4611 54.6054C15.3616 54.609 15.2233 54.6171 15.0677 54.6354C14.7767 54.6697 14.3472 54.7475 14.0141 54.9525C13.8402 55.0596 13.656 55.2238 13.5566 55.47C13.4533 55.7261 13.4708 55.9987 13.571 56.259C13.7555 56.7379 14.2522 57.2613 15.0753 57.8735L15.0827 57.8789L15.0902 57.8841C16.9141 59.1395 18.2699 61.0662 18.9017 63.3215L18.9704 63.3023C18.9017 63.3216 18.9017 63.3218 18.9018 63.322L18.902 63.3229L18.9027 63.3252L18.9046 63.3318L18.9109 63.3531C18.9163 63.3709 18.924 63.3956 18.9342 63.4268C18.9546 63.4891 18.985 63.5773 19.027 63.6869C19.1108 63.906 19.241 64.2119 19.4295 64.5693C19.806 65.2829 20.4191 66.2097 21.3667 67.0603Z" stroke="black"/>
</g>
<defs>
<filter id="filter0_d" x="0.420517" y="0.833336" width="80.2757" height="84.2008" filterUnits="userSpaceOnUse" color-interpolation-filters="sRGB">
<feFlood flood-opacity="0" result="BackgroundImageFix"/>
<feColorMatrix in="SourceAlpha" type="matrix" values="0 0 0 0 0 0 0 0 0 0 0 0 0 0 0 0 0 0 127 0"/>
<feOffset dy="4"/>
<feGaussianBlur stdDeviation="2"/>
<feColorMatrix type="matrix" values="0 0 0 0 0 0 0 0 0 0 0 0 0 0 0 0 0 0 0.25 0"/>
<feBlend mode="normal" in2="BackgroundImageFix" result="effect1_dropShadow"/>
<feBlend mode="normal" in="SourceGraphic" in2="effect1_dropShadow" result="shape"/>
</filter>
</defs>
</svg>
