<svg width="81" height="85" viewBox="0 0 81 85" fill="none" xmlns="http://www.w3.org/2000/svg">
<g filter="url(#filter0_d)">
<path d="M40.136 1.03758e-06C22.414 -0.00246064 7.30677 13.8963 4.46935 32.8136C1.63192 51.7308 11.9021 70.0808 28.7163 76.1361C30.5272 76.4886 31.1755 75.2862 31.1755 74.2522C31.1755 73.3239 31.1466 70.8642 31.1357 67.5938C21.085 69.9438 18.9626 62.3533 18.9626 62.3533C18.3009 59.9914 16.8785 57.964 14.9532 56.6389C11.6935 54.2145 15.2031 54.2693 15.2031 54.2693C17.5236 54.6134 19.5658 56.1002 20.7337 58.2957C21.7222 60.2393 23.3876 61.6756 25.3599 62.2853C27.3322 62.8949 29.448 62.6276 31.2371 61.5426C31.4052 59.5608 32.2206 57.7085 33.537 56.3177C25.5182 55.3347 17.0865 51.982 17.0865 37.0086C17.042 33.1358 18.3719 29.3918 20.8025 26.5472C19.7027 23.1761 19.8322 19.4786 21.1647 16.2072C21.1647 16.2072 24.1962 15.1536 31.0958 20.2061C37.0134 18.4514 43.2586 18.4514 49.1762 20.2061C56.0795 15.1497 59.1073 16.2072 59.1073 16.2072C60.446 19.477 60.5756 23.1772 59.4695 26.5472C61.9091 29.3916 63.2379 33.1453 63.1783 37.0243C63.1783 52.0368 54.7394 55.3347 46.6916 56.3021C48.4276 58.2215 49.318 60.8546 49.1364 63.5322C49.1364 68.7571 49.0929 72.9714 49.0929 74.2522C49.0929 75.2979 49.7376 76.5121 51.5811 76.1282C68.3883 70.0627 78.6475 51.7117 75.8042 32.7994C72.9609 13.8871 57.8544 -0.00438343 40.136 1.03758e-06Z" fill="#FFF281"/>
<path d="M20.9462 66.2269C22.7882 67.8802 25.8239 69.1817 30.638 68.2138C30.6448 69.8693 30.6557 71.2853 30.664 72.3652C30.6706 73.2217 30.6755 73.8668 30.6755 74.2522C30.6755 74.6786 30.5401 75.0937 30.2727 75.3593C30.0304 75.5999 29.6059 75.7911 28.8484 75.6522C12.3029 69.672 2.16024 51.5793 4.96382 32.8877C7.7689 14.1861 22.6898 0.497578 40.136 0.500001L40.1361 0.500001C57.5787 0.495685 72.4989 14.1771 75.3098 32.8737C78.1193 51.5615 67.9861 69.6564 51.4456 75.6456C50.6681 75.7996 50.2388 75.6091 49.9968 75.3703C49.7288 75.106 49.5929 74.6871 49.5929 74.2522C49.5929 73.8296 49.5976 73.0865 49.604 72.0904C49.6073 71.5814 49.6109 71.0063 49.6146 70.3741C49.6255 68.5109 49.6363 66.1561 49.6364 63.549C49.8008 61.0649 49.0864 58.6128 47.6487 56.6808C51.4276 56.1416 55.2944 55.0126 58.2885 52.3007C61.5373 49.3582 63.6776 44.6289 63.6783 37.0282C63.7373 33.1297 62.4355 29.3482 60.0295 26.4361C61.0799 23.026 60.9186 19.3119 59.5701 16.0177L59.4848 15.8094L59.2722 15.7351L59.1073 16.2072C59.2722 15.7351 59.2717 15.7349 59.2712 15.7348L59.27 15.7344L59.2676 15.7335L59.2618 15.7316L59.2469 15.7268C59.2423 15.7254 59.2372 15.7239 59.2317 15.7222C59.2233 15.7197 59.2138 15.717 59.2033 15.7142C59.1681 15.7046 59.1206 15.6929 59.0608 15.6811C58.941 15.6574 58.7719 15.6329 58.552 15.6216C58.1119 15.599 57.4718 15.6295 56.6198 15.8229C54.9497 16.202 52.4697 17.2057 49.0806 19.6572C43.2202 17.9677 37.0518 17.9677 31.1914 19.6572C27.8041 17.2076 25.3241 16.2039 23.6537 15.8244C22.8015 15.6307 22.1612 15.5999 21.7209 15.6221C21.501 15.6333 21.3318 15.6576 21.212 15.6812C21.1521 15.6929 21.1047 15.7045 21.0695 15.714C21.0519 15.7188 21.0373 15.7231 21.0259 15.7266L21.0109 15.7314L21.0052 15.7333L21.0027 15.7341L21.0016 15.7345C21.0011 15.7347 21.0006 15.7349 21.1647 16.2072L21.0006 15.7349L20.7869 15.8091L20.7016 16.0186C19.3594 19.314 19.1985 23.0255 20.243 26.4362C17.8456 29.3478 16.5424 33.1192 16.5865 37.0114C16.587 44.5935 18.7257 49.3262 21.968 52.2792C24.952 54.9969 28.8031 56.143 32.5649 56.692C31.5781 57.9919 30.9528 59.5688 30.7647 61.2393C29.1429 62.1465 27.2637 62.3504 25.5076 61.8076C23.6724 61.2403 22.1104 59.8997 21.1794 58.069L21.1794 58.069L21.1751 58.0608C19.938 55.7351 17.7646 54.1437 15.2764 53.7747L15.2439 53.7699L15.2109 53.7694L15.2031 54.2693C15.2109 53.7694 15.2107 53.7694 15.2105 53.7694L15.2101 53.7694L15.2089 53.7694L15.2057 53.7693L15.1954 53.7693L15.1607 53.7693C15.1315 53.7695 15.0907 53.7702 15.0406 53.772C14.9411 53.7756 14.8028 53.7838 14.6472 53.8021C14.3562 53.8363 13.9267 53.9142 13.5936 54.1192C13.4197 54.2263 13.2355 54.3905 13.1361 54.6366C13.0328 54.8927 13.0502 55.1654 13.1505 55.4256C13.335 55.9045 13.8317 56.4279 14.6548 57.0401L14.6622 57.0456L14.6697 57.0508C16.4936 58.3061 17.8493 60.2329 18.4811 62.4882L18.5499 62.469C18.4812 62.4883 18.4812 62.4885 18.4813 62.4887L18.4815 62.4896L18.4822 62.4918L18.4841 62.4985L18.4904 62.5198C18.4958 62.5376 18.5035 62.5623 18.5137 62.5935C18.5341 62.6558 18.5645 62.744 18.6065 62.8536C18.6903 63.0727 18.8205 63.3786 19.009 63.7359C19.3855 64.4496 19.9986 65.3764 20.9462 66.2269Z" stroke="black"/>
</g>
<defs>
<filter id="filter0_d" x="0" y="0" width="80.2757" height="84.2008" filterUnits="userSpaceOnUse" color-interpolation-filters="sRGB">
<feFlood flood-opacity="0" result="BackgroundImageFix"/>
<feColorMatrix in="SourceAlpha" type="matrix" values="0 0 0 0 0 0 0 0 0 0 0 0 0 0 0 0 0 0 127 0"/>
<feOffset dy="4"/>
<feGaussianBlur stdDeviation="2"/>
<feColorMatrix type="matrix" values="0 0 0 0 0 0 0 0 0 0 0 0 0 0 0 0 0 0 0.25 0"/>
<feBlend mode="normal" in2="BackgroundImageFix" result="effect1_dropShadow"/>
<feBlend mode="normal" in="SourceGraphic" in2="effect1_dropShadow" result="shape"/>
</filter>
</defs>
</svg>
