<svg width="81" height="80" viewBox="0 0 81 80" fill="none" xmlns="http://www.w3.org/2000/svg">
<g filter="url(#filter0_d)">
<path d="M40.8572 71.2029L11.4944 64.0511L4.93427 0.796875H76.9404L70.3986 64.0511L40.8572 71.2029ZM21.2088 41.0798L22.3304 53.3115L40.9305 57.5611L59.3703 53.3311L61.9294 29.3885H29.0416L28.2496 21.426H62.7351L63.5317 13.7454H18.3476L20.7373 37.2454H52.0319L50.9195 47.2955L40.9442 49.6455L30.7995 47.2681L30.154 41.0798H21.2088Z" fill="#FFF281"/>
<path d="M21.2088 40.5798H20.6608L20.7109 41.1255L21.8325 53.3572L21.8656 53.7182L22.219 53.799L40.8191 58.0486L40.9307 58.0741L41.0423 58.0485L59.4821 53.8185L59.8296 53.7388L59.8675 53.3843L62.4266 29.4417L62.4857 28.8885H61.9294H29.4943L28.8018 21.926H62.7351H63.1859L63.2324 21.4775L64.029 13.797L64.0862 13.2454H63.5317H18.3476H17.7942L17.8501 13.796L20.2398 37.296L20.2855 37.7454H20.7373H51.4735L50.4613 46.8898L40.9439 49.1319L31.2599 46.8625L30.6513 41.0279L30.6046 40.5798H30.154H21.2088ZM40.8576 70.6884L11.9554 63.6487L5.4888 1.29688H76.386L69.9375 63.6482L40.8576 70.6884Z" stroke="black"/>
</g>
<defs>
<filter id="filter0_d" x="0.934265" y="0.796875" width="80.0061" height="78.406" filterUnits="userSpaceOnUse" color-interpolation-filters="sRGB">
<feFlood flood-opacity="0" result="BackgroundImageFix"/>
<feColorMatrix in="SourceAlpha" type="matrix" values="0 0 0 0 0 0 0 0 0 0 0 0 0 0 0 0 0 0 127 0"/>
<feOffset dy="4"/>
<feGaussianBlur stdDeviation="2"/>
<feColorMatrix type="matrix" values="0 0 0 0 0 0 0 0 0 0 0 0 0 0 0 0 0 0 0.25 0"/>
<feBlend mode="normal" in2="BackgroundImageFix" result="effect1_dropShadow"/>
<feBlend mode="normal" in="SourceGraphic" in2="effect1_dropShadow" result="shape"/>
</filter>
</defs>
</svg>
