<svg width="80" height="80" viewBox="0 0 80 80" fill="none" xmlns="http://www.w3.org/2000/svg">
<g filter="url(#filter0_d)">
<path d="M68.8345 71.2226H11.1655C7.63989 71.2183 4.7835 68.3601 4.78134 64.8345V7.16549C4.78566 3.6414 7.64142 0.785635 11.1655 0.781319H68.8306C72.356 0.785623 75.214 3.64013 75.2226 7.16549V64.8345C75.2183 68.3607 72.3608 71.2183 68.8345 71.2226ZM19.1359 26.8742L17.6163 32.475H22.6218L19.3866 45.6585C19.1489 46.7013 19.0176 47.7656 18.9949 48.8349C18.8129 50.5559 19.4288 52.2654 20.6665 53.4749C21.9042 54.6844 23.6276 55.2606 25.3438 55.0389C28.9854 54.8809 32.2565 52.7651 33.8939 49.5086L32.6132 54.6002H39.7063L43.7522 38.3813C44.7705 34.2297 46.7758 32.1147 49.7016 32.1147C50.7412 32.0371 51.7623 32.42 52.4945 33.162C53.2267 33.904 53.5961 34.9302 53.5047 35.9687C53.515 36.74 53.4026 37.5081 53.1718 38.2442L51.1038 45.7094C50.8056 46.7431 50.6552 47.8139 50.6573 48.8897C50.5452 50.6082 51.2031 52.2874 52.4525 53.4725C53.7019 54.6576 55.4136 55.2259 57.1237 55.0232C61.1578 55.0232 63.97 52.2816 65.4936 46.8727L62.7245 45.8034C61.6435 48.8937 60.492 50.3977 59.1995 50.3977C58.2556 50.3977 57.7582 49.7436 57.7582 48.502C57.7848 47.8508 57.8833 47.2045 58.0519 46.575L60.0886 39.2978C60.5505 37.8005 60.788 36.2431 60.7936 34.6762C61.0266 32.5941 60.3711 30.5102 58.9882 28.9364C57.6052 27.3626 55.6229 26.4447 53.5282 26.4081C49.4228 26.9687 45.8782 29.5646 44.1047 33.3092L45.5147 26.976H34.595L33.0636 32.4593H38.1318L34.9984 44.9457C33.9043 48.0132 31.0958 50.1403 27.8466 50.3624C27.7259 50.3642 27.6053 50.355 27.4863 50.335C26.5345 50.1117 25.9823 49.7475 25.9823 48.5647C26.0045 47.5869 26.1492 46.6158 26.4131 45.6742L31.1758 26.8742H19.1359ZM28.3205 14.4897C26.7953 14.4897 25.3859 15.3034 24.6233 16.6242C23.8607 17.9451 23.8607 19.5725 24.6233 20.8934C25.3859 22.2143 26.7953 23.028 28.3205 23.028V22.9301C29.4624 22.9393 30.5617 22.4973 31.3794 21.7002C32.1811 20.9087 32.6289 19.8267 32.621 18.7001C32.5909 16.3521 30.6686 14.4701 28.3205 14.4897Z" fill="white"/>
<path d="M11.1661 70.7226H68.8339C72.0845 70.7186 74.7186 68.0845 74.7226 64.8339V7.16671C74.7146 3.91688 72.0801 1.28545 68.8303 1.28132H11.1658C7.91763 1.28546 5.28549 3.91761 5.28134 7.16579L5.28134 64.8342L11.1661 70.7226ZM11.1661 70.7226C7.91639 70.7186 5.2835 68.0842 5.28134 64.8345L11.1661 70.7226ZM19.1359 26.3742H18.7535L18.6534 26.7432L17.1337 32.3441L16.9625 32.975H17.6163H21.9842L18.901 45.5393L18.9009 45.5393L18.8991 45.5473C18.6554 46.6164 18.5202 47.7073 18.4955 48.8035C18.3046 50.6695 18.975 52.5211 20.317 53.8325C21.6591 55.1439 23.5256 55.7713 25.3866 55.5375C28.2356 55.4082 30.8671 54.1373 32.7314 52.0804L32.1283 54.4783L31.9718 55.1002H32.6132H39.7063H40.0969L40.1914 54.7213L44.2373 38.5023L44.2378 38.5004C44.7354 36.4717 45.4616 34.997 46.3743 34.0353C47.2734 33.0879 48.3747 32.6147 49.7016 32.6147H49.7202L49.7388 32.6133C50.632 32.5466 51.5095 32.8757 52.1386 33.5132C52.7678 34.1508 53.0851 35.0325 53.0066 35.9248L53.0044 35.95L53.0047 35.9754C53.0144 36.6937 52.9097 37.4091 52.6947 38.0946L52.6922 38.1026L52.6899 38.1108L50.6233 45.5708C50.6231 45.5717 50.6228 45.5726 50.6226 45.5735C50.3133 46.6464 50.1567 47.7575 50.1572 48.8741C50.0409 50.7349 50.7553 52.5519 52.1084 53.8353C53.4584 55.1158 55.3052 55.7333 57.153 55.5232C59.2835 55.5165 61.1116 54.7833 62.599 53.3344C64.0813 51.8906 65.199 49.7625 65.9749 47.0082L66.0983 46.5702L65.6737 46.4062L62.9046 45.337L62.423 45.151L62.2525 45.6383C61.7189 47.1639 61.1817 48.2546 60.6446 48.9551C60.1077 49.6552 59.6267 49.8977 59.1995 49.8977C58.8548 49.8977 58.6544 49.7858 58.5229 49.6128C58.3745 49.4176 58.2595 49.0723 58.2582 48.5121C58.2838 47.9022 58.3764 47.2969 58.5341 46.7072C58.5344 46.7063 58.5346 46.7053 58.5349 46.7044L60.5683 39.4389C61.0408 37.9049 61.2852 36.3097 61.2935 34.7047C61.5334 32.4917 60.8336 30.2791 59.3638 28.6064C57.8879 26.9268 55.7724 25.9472 53.5369 25.9081L53.4985 25.9075L53.4605 25.9127C50.1817 26.3605 47.2465 28.0556 45.2243 30.5812L46.0027 27.0846L46.1382 26.476H45.5147H34.595H34.2155L34.1134 26.8415L32.582 32.3248L32.4048 32.9593H33.0636H37.4908L34.5194 44.8001C33.4881 47.6638 30.8635 49.6494 27.8266 49.8626C27.7454 49.8631 27.6643 49.857 27.5841 49.8443C27.1401 49.7388 26.8884 49.6195 26.7375 49.4628C26.6015 49.3217 26.4831 49.081 26.4823 48.5702C26.5039 47.6362 26.6424 46.7087 26.8945 45.8091L26.8947 45.8091L26.8978 45.7969L31.6604 26.9969L31.8182 26.3742H31.1758H19.1359ZM28.8205 23.4078C29.9101 23.3025 30.9374 22.8294 31.7285 22.0583L31.7307 22.056C32.6284 21.1697 33.1298 19.9581 33.121 18.6966L33.121 18.6937C33.0873 16.0711 30.9408 13.9689 28.3184 13.9897C26.6153 13.9904 25.0419 14.8993 24.1903 16.3742C23.3384 17.8498 23.3384 19.6678 24.1903 21.1434C25.0422 22.619 26.6166 23.528 28.3205 23.528H28.8205V23.4078Z" stroke="black"/>
</g>
<defs>
<filter id="filter0_d" x="0.781342" y="0.781319" width="78.4413" height="78.4413" filterUnits="userSpaceOnUse" color-interpolation-filters="sRGB">
<feFlood flood-opacity="0" result="BackgroundImageFix"/>
<feColorMatrix in="SourceAlpha" type="matrix" values="0 0 0 0 0 0 0 0 0 0 0 0 0 0 0 0 0 0 127 0"/>
<feOffset dy="4"/>
<feGaussianBlur stdDeviation="2"/>
<feColorMatrix type="matrix" values="0 0 0 0 0 0 0 0 0 0 0 0 0 0 0 0 0 0 0.25 0"/>
<feBlend mode="normal" in2="BackgroundImageFix" result="effect1_dropShadow"/>
<feBlend mode="normal" in="SourceGraphic" in2="effect1_dropShadow" result="shape"/>
</filter>
</defs>
</svg>
