<svg width="87" height="86" viewBox="0 0 87 86" fill="none" xmlns="http://www.w3.org/2000/svg">
<g filter="url(#filter0_d)">
<path d="M43.1019 0.833345C23.9373 0.830883 7.60045 14.7296 4.53207 33.6469C1.46369 52.5642 12.5698 70.9142 30.7526 76.9694C32.7109 77.3219 33.412 76.1195 33.412 75.0855C33.412 74.1572 33.3807 71.6976 33.3689 68.4272C22.5002 70.7772 20.205 63.1867 20.205 63.1867C19.4895 60.8247 17.9513 58.7974 15.8693 57.4723C12.3443 55.0478 16.1395 55.1027 16.1395 55.1027C18.6488 55.4467 20.8573 56.9335 22.1203 59.129C23.1893 61.0727 24.9902 62.5089 27.123 63.1186C29.2558 63.7283 31.5438 63.4609 33.4786 62.3759C33.6604 60.3941 34.5421 58.5418 35.9657 57.1511C27.2942 56.168 18.1762 52.8153 18.1762 37.8419C18.1281 33.9691 19.5662 30.2252 22.1947 27.3805C21.0054 24.0095 21.1454 20.3119 22.5863 17.0405C22.5863 17.0405 25.8646 15.9869 33.3258 21.0394C39.7251 19.2848 46.4786 19.2848 52.8779 21.0394C60.343 15.983 63.6174 17.0405 63.6174 17.0405C65.0649 20.3104 65.2051 24.0105 64.009 27.3805C66.6471 30.2249 68.0841 33.9787 68.0197 37.8576C68.0197 52.8702 58.8939 56.168 50.191 57.1354C52.0684 59.0548 53.0312 61.6879 52.8348 64.3656C52.8348 69.5904 52.7878 73.8048 52.7878 75.0855C52.7878 76.1313 53.4849 77.3454 55.4785 76.9616C73.6537 70.8961 84.7479 52.545 81.6733 33.6327C78.5986 14.7205 62.2624 0.82896 43.1019 0.833345Z" fill="#B59AEE"/>
<path d="M22.3919 67.0729C24.3805 68.7235 27.6574 70.0212 32.8714 69.038C32.8787 70.698 32.8905 72.1172 32.8995 73.1989C32.9067 74.0552 32.912 74.7001 32.912 75.0855C32.912 75.5007 32.7703 75.9111 32.4785 76.1791C32.2051 76.4302 31.7213 76.628 30.8756 76.4834C12.9463 70.4938 1.99848 52.39 5.02562 33.727C8.05473 15.0518 24.1825 1.33091 43.1018 1.33334L43.102 1.33334C62.0173 1.32902 78.1444 15.0428 81.1797 33.713C84.2133 52.3721 73.2759 70.4778 55.3523 76.4766C54.4856 76.6365 53.9961 76.4398 53.7225 76.1902C53.43 75.9234 53.2878 75.5093 53.2878 75.0855C53.2878 74.6632 53.2929 73.9205 53.2998 72.9248C53.3033 72.4156 53.3073 71.8403 53.3113 71.2077C53.323 69.3447 53.3347 66.9904 53.3348 64.3837C53.5126 61.8959 52.7408 59.4459 51.1963 57.5173C55.2806 56.9802 59.4564 55.855 62.69 53.1468C66.1989 50.2079 68.519 45.4745 68.5197 37.8613C68.5834 33.9554 67.1738 30.1726 64.578 27.263C65.7102 23.8497 65.5332 20.133 64.0746 16.8381L63.984 16.6335L63.771 16.5647L63.6174 17.0405C63.771 16.5647 63.7705 16.5646 63.77 16.5644L63.769 16.564L63.7666 16.5633L63.7609 16.5615L63.7459 16.5571C63.7342 16.5537 63.7193 16.5497 63.7011 16.5451C63.6646 16.5359 63.615 16.5246 63.552 16.5131C63.426 16.4901 63.2468 16.466 63.0128 16.4548C62.5445 16.4326 61.8595 16.4624 60.9443 16.6545C59.1458 17.032 56.463 18.0352 52.788 20.4971C46.4423 18.7989 39.7614 18.7989 33.4156 20.4971C29.7426 18.0371 27.0598 17.0339 25.2609 16.656C24.3456 16.4636 23.6603 16.4335 23.1918 16.4554C22.9577 16.4663 22.7784 16.4903 22.6524 16.5132C22.5894 16.5246 22.5397 16.5358 22.5033 16.545C22.485 16.5495 22.4701 16.5536 22.4585 16.5569L22.4435 16.5613L22.4378 16.5631L22.4354 16.5638L22.4344 16.5642C22.4339 16.5643 22.4334 16.5645 22.5863 17.0405L22.4334 16.5645L22.2194 16.6333L22.1288 16.839C20.6769 20.1352 20.5004 23.8492 21.6263 27.2631C19.0396 30.1723 17.6285 33.9453 17.6762 37.8451C17.6768 45.4393 19.9951 50.1759 23.497 53.1253C26.7197 55.8395 30.8784 56.9817 34.9439 57.5285C33.8873 58.8225 33.214 60.3931 33.0095 62.0609C31.2401 62.9788 29.1832 63.1875 27.2605 62.6379C25.2559 62.0648 23.5631 60.7149 22.5584 58.8881L22.5585 58.888L22.5537 58.8797C21.2136 56.5501 18.8701 54.9724 16.2074 54.6073L16.1772 54.6032L16.1467 54.6027L16.1395 55.1027C16.1467 54.6027 16.1466 54.6027 16.1464 54.6027L16.1459 54.6027L16.1448 54.6027L16.1415 54.6027L16.1308 54.6026L16.0942 54.6027C16.0634 54.6029 16.0199 54.6036 15.9666 54.6053C15.8605 54.6089 15.7132 54.6169 15.5475 54.6349C15.236 54.6688 14.7839 54.7452 14.4351 54.9438C14.2553 55.0462 14.0565 55.2072 13.9474 55.4571C13.8317 55.7224 13.8521 56.0058 13.9628 56.2715C14.1637 56.7536 14.7003 57.2751 15.5859 57.8842L15.5933 57.8893L15.6008 57.8941C17.5819 59.155 19.0456 61.0841 19.7265 63.3316L19.7926 63.3116C19.7265 63.3317 19.7266 63.3319 19.7266 63.3321L19.7269 63.333L19.7276 63.3354L19.7298 63.3422L19.7367 63.3638C19.7426 63.3818 19.751 63.4067 19.7621 63.4381C19.7843 63.5008 19.8173 63.5894 19.8629 63.6994C19.9539 63.9193 20.095 64.2258 20.2992 64.5837C20.7071 65.2989 21.3699 66.2247 22.3919 67.0729Z" stroke="black"/>
</g>
<defs>
<filter id="filter0_d" x="0.0245209" y="0.833344" width="86.1586" height="84.2008" filterUnits="userSpaceOnUse" color-interpolation-filters="sRGB">
<feFlood flood-opacity="0" result="BackgroundImageFix"/>
<feColorMatrix in="SourceAlpha" type="matrix" values="0 0 0 0 0 0 0 0 0 0 0 0 0 0 0 0 0 0 127 0"/>
<feOffset dy="4"/>
<feGaussianBlur stdDeviation="2"/>
<feColorMatrix type="matrix" values="0 0 0 0 0 0 0 0 0 0 0 0 0 0 0 0 0 0 0.25 0"/>
<feBlend mode="normal" in2="BackgroundImageFix" result="effect1_dropShadow"/>
<feBlend mode="normal" in="SourceGraphic" in2="effect1_dropShadow" result="shape"/>
</filter>
</defs>
</svg>
