<svg width="75" height="86" viewBox="0 0 75 86" fill="none" xmlns="http://www.w3.org/2000/svg">
<g filter="url(#filter0_dd)">
<mask id="path-1-inside-1" fill="white">
<path fill-rule="evenodd" clip-rule="evenodd" d="M4.6875 38.6463L35.8125 74.3363H39.1875L70.3125 38.6463V34.7763L54.75 16.9312L53.0625 16.125H21.9375L20.25 16.9312L4.6875 34.7763V38.6463ZM37.5 68.5312L9.75 36.7113L22.9219 21.5H52.0781L65.25 36.7113L37.5 68.5312ZM37.5 26.9826H50.1094L58.5938 36.7114L37.5 60.3614V26.9826Z"/>
</mask>
<path fill-rule="evenodd" clip-rule="evenodd" d="M4.6875 38.6463L35.8125 74.3363H39.1875L70.3125 38.6463V34.7763L54.75 16.9312L53.0625 16.125H21.9375L20.25 16.9312L4.6875 34.7763V38.6463ZM37.5 68.5312L9.75 36.7113L22.9219 21.5H52.0781L65.25 36.7113L37.5 68.5312ZM37.5 26.9826H50.1094L58.5938 36.7114L37.5 60.3614V26.9826Z" fill="#FFF281"/>
<path d="M35.8125 74.3363L35.0588 74.9935L35.3577 75.3363H35.8125V74.3363ZM4.6875 38.6463H3.6875V39.021L3.93384 39.3035L4.6875 38.6463ZM39.1875 74.3363V75.3363H39.6423L39.9412 74.9935L39.1875 74.3363ZM70.3125 38.6463L71.0662 39.3035L71.3125 39.021V38.6463H70.3125ZM70.3125 34.7763H71.3125V34.4015L71.0662 34.119L70.3125 34.7763ZM54.75 16.9312L55.5037 16.274L55.3677 16.1181L55.1811 16.0289L54.75 16.9312ZM53.0625 16.125L53.4936 15.2227L53.2891 15.125H53.0625V16.125ZM21.9375 16.125V15.125H21.7109L21.5064 15.2227L21.9375 16.125ZM20.25 16.9312L19.8189 16.0289L19.6323 16.1181L19.4963 16.274L20.25 16.9312ZM4.6875 34.7763L3.93384 34.119L3.6875 34.4015V34.7763H4.6875ZM9.75 36.7113L8.99404 36.0566L8.42517 36.7136L8.99634 37.3685L9.75 36.7113ZM37.5 68.5312L36.7463 69.1885L37.5 70.0527L38.2537 69.1885L37.5 68.5312ZM22.9219 21.5V20.5H22.465L22.1659 20.8454L22.9219 21.5ZM52.0781 21.5L52.8341 20.8454L52.535 20.5H52.0781V21.5ZM65.25 36.7113L66.0037 37.3685L66.5748 36.7136L66.006 36.0566L65.25 36.7113ZM50.1094 26.9826L50.863 26.3253L50.5641 25.9826H50.1094V26.9826ZM37.5 26.9826V25.9826H36.5V26.9826H37.5ZM58.5938 36.7114L59.34 37.377L59.9271 36.7188L59.3474 36.0541L58.5938 36.7114ZM37.5 60.3614H36.5V62.9849L38.2463 61.027L37.5 60.3614ZM36.5662 73.679L5.44116 37.989L3.93384 39.3035L35.0588 74.9935L36.5662 73.679ZM39.1875 73.3363H35.8125V75.3363H39.1875V73.3363ZM69.5588 37.989L38.4338 73.679L39.9412 74.9935L71.0662 39.3035L69.5588 37.989ZM69.3125 34.7763V38.6463H71.3125V34.7763H69.3125ZM53.9963 17.5885L69.5588 35.4335L71.0662 34.119L55.5037 16.274L53.9963 17.5885ZM52.6314 17.0273L54.3189 17.8336L55.1811 16.0289L53.4936 15.2227L52.6314 17.0273ZM21.9375 17.125H53.0625V15.125H21.9375V17.125ZM20.6811 17.8336L22.3686 17.0273L21.5064 15.2227L19.8189 16.0289L20.6811 17.8336ZM5.44116 35.4335L21.0037 17.5885L19.4963 16.274L3.93384 34.119L5.44116 35.4335ZM5.6875 38.6463V34.7763H3.6875V38.6463H5.6875ZM8.99634 37.3685L36.7463 69.1885L38.2537 67.874L10.5037 36.054L8.99634 37.3685ZM22.1659 20.8454L8.99404 36.0566L10.506 37.3659L23.6778 22.1546L22.1659 20.8454ZM52.0781 20.5H22.9219V22.5H52.0781V20.5ZM66.006 36.0566L52.8341 20.8454L51.3222 22.1546L64.494 37.3659L66.006 36.0566ZM38.2537 69.1885L66.0037 37.3685L64.4963 36.054L36.7463 67.874L38.2537 69.1885ZM50.1094 25.9826H37.5V27.9826H50.1094V25.9826ZM59.3474 36.0541L50.863 26.3253L49.3557 27.6399L57.8401 37.3686L59.3474 36.0541ZM38.2463 61.027L59.34 37.377L57.8475 36.0457L36.7537 59.6957L38.2463 61.027ZM36.5 26.9826V60.3614H38.5V26.9826H36.5Z" fill="black" mask="url(#path-1-inside-1)"/>
</g>
<defs>
<filter id="filter0_dd" x="0.6875" y="16.125" width="73.625" height="66.2113" filterUnits="userSpaceOnUse" color-interpolation-filters="sRGB">
<feFlood flood-opacity="0" result="BackgroundImageFix"/>
<feColorMatrix in="SourceAlpha" type="matrix" values="0 0 0 0 0 0 0 0 0 0 0 0 0 0 0 0 0 0 127 0"/>
<feOffset dy="4"/>
<feGaussianBlur stdDeviation="2"/>
<feColorMatrix type="matrix" values="0 0 0 0 0 0 0 0 0 0 0 0 0 0 0 0 0 0 0.25 0"/>
<feBlend mode="normal" in2="BackgroundImageFix" result="effect1_dropShadow"/>
<feColorMatrix in="SourceAlpha" type="matrix" values="0 0 0 0 0 0 0 0 0 0 0 0 0 0 0 0 0 0 127 0"/>
<feOffset dy="4"/>
<feGaussianBlur stdDeviation="2"/>
<feColorMatrix type="matrix" values="0 0 0 0 0 0 0 0 0 0 0 0 0 0 0 0 0 0 0.25 0"/>
<feBlend mode="normal" in2="effect1_dropShadow" result="effect2_dropShadow"/>
<feBlend mode="normal" in="SourceGraphic" in2="effect2_dropShadow" result="shape"/>
</filter>
</defs>
</svg>
