<svg width="88" height="87" viewBox="0 0 88 87" fill="none" xmlns="http://www.w3.org/2000/svg">
<g filter="url(#filter0_d)">
<path d="M54.3439 79.2608C49.7985 79.2457 46.1211 75.5578 46.1189 71.0123V62.7599H54.3439C58.9016 62.7599 62.5963 66.4546 62.5963 71.0123C62.5963 75.57 58.9016 79.2647 54.3439 79.2647V79.2608ZM33.6561 79.2608C29.1106 79.2457 25.4332 75.5578 25.4311 71.0123V50.3558C25.4311 47.4124 27.0014 44.6926 29.5504 43.2209C32.0995 41.7492 35.2401 41.7492 37.7892 43.2209C40.3382 44.6926 41.9085 47.4124 41.9085 50.3558V71.0123C41.9063 75.5684 38.2122 79.2608 33.6561 79.2608ZM74.9769 58.6082H54.3439C49.7873 58.6082 46.0935 54.9143 46.0935 50.3577C46.0935 45.8011 49.7873 42.1073 54.3439 42.1073H74.9769C79.5335 42.1073 83.2274 45.8011 83.2274 50.3577C83.2274 54.9143 79.5335 58.6082 74.9769 58.6082ZM13.027 58.6082C8.47041 58.6082 4.77655 54.9143 4.77655 50.3577C4.77655 45.8011 8.47041 42.1073 13.027 42.1073H21.252V50.3558C21.252 54.9104 17.562 58.6039 13.0074 58.6082H13.027ZM74.9769 37.893H66.7519V29.6445C66.7649 25.105 70.4531 21.4343 74.9925 21.443C79.532 21.4516 83.2062 25.1363 83.2019 29.6758C83.1976 34.2152 79.5164 37.893 74.9769 37.893ZM54.3439 37.893C49.7985 37.8779 46.1211 34.1899 46.1189 29.6445V8.98796C46.1189 6.04455 47.6892 3.32473 50.2383 1.85303C52.7873 0.381324 55.9279 0.381324 58.477 1.85303C61.0261 3.32473 62.5963 6.04455 62.5963 8.98796V29.6445C62.5942 34.2006 58.9001 37.893 54.3439 37.893ZM33.6561 37.893H13.027C8.47041 37.893 4.77655 34.1991 4.77655 29.6425C4.77655 25.0859 8.47041 21.392 13.027 21.392H33.6561C38.2127 21.392 41.9065 25.0859 41.9065 29.6425C41.9065 34.1991 38.2127 37.893 33.6561 37.893ZM41.8811 17.2404H33.6561C30.3181 17.2499 27.3035 15.2467 26.0191 12.1657C24.7348 9.08465 25.4339 5.53329 27.7903 3.16905C30.1467 0.804814 33.6957 0.0938232 36.781 1.36791C39.8663 2.642 41.8795 5.64997 41.8811 8.98796V17.2365V17.2404Z" fill="#FFF281"/>
<path d="M46.6189 71.012V63.2599H54.3439C58.6255 63.2599 62.0963 66.7307 62.0963 71.0123C62.0963 75.2189 58.7459 78.643 54.568 78.7615L54.3456 78.7608C50.0756 78.7466 46.6211 75.2822 46.6189 71.0123C46.6189 71.0122 46.6189 71.0121 46.6189 71.012ZM13.0142 58.1082C8.73965 58.1013 5.27655 54.634 5.27655 50.3577C5.27655 46.0773 8.74655 42.6073 13.027 42.6073H20.752V50.3558C20.752 54.632 17.2896 58.1002 13.0142 58.1082ZM41.3811 8.9882V16.7404L33.6561 16.7404L33.6547 16.7404C30.519 16.7493 27.6871 14.8675 26.4806 11.9733C25.2741 9.07903 25.9309 5.74294 28.1445 3.52202C30.358 1.30109 33.6919 0.633199 36.5901 1.83005C39.4883 3.02688 41.3795 5.85241 41.3811 8.98796C41.3811 8.98804 41.3811 8.98812 41.3811 8.9882ZM33.6578 78.7608C29.3878 78.7466 25.9332 75.2822 25.9311 71.0123C25.9311 71.0122 25.9311 71.0121 25.9311 71.012V50.3558C25.9311 47.591 27.4061 45.0363 29.8004 43.6539C32.1948 42.2715 35.1448 42.2715 37.5392 43.6539C39.9335 45.0363 41.4085 47.591 41.4085 50.3558V71.012C41.4085 71.0121 41.4085 71.0122 41.4085 71.0123C41.4063 75.2917 37.937 78.7599 33.6578 78.7608ZM74.9769 58.1082H54.3439C50.0635 58.1082 46.5935 54.6382 46.5935 50.3577C46.5935 46.0773 50.0635 42.6073 54.3439 42.6073H74.9769C79.2574 42.6073 82.7274 46.0773 82.7274 50.3577C82.7274 54.6382 79.2574 58.1082 74.9769 58.1082ZM74.9769 37.393H67.2519L67.2519 29.6459C67.2519 29.6455 67.2519 29.645 67.2519 29.6446C67.2648 25.3817 70.7285 21.9349 74.9916 21.943C79.2551 21.9511 82.7059 25.4118 82.7019 29.6753C82.6978 33.9388 79.2404 37.393 74.9769 37.393ZM54.3445 37.393C50.075 37.3782 46.6211 33.914 46.6189 29.6445C46.6189 29.6444 46.6189 29.6443 46.6189 29.6442V8.98796C46.6189 6.22318 48.0939 3.66843 50.4883 2.28604C52.8826 0.903653 55.8326 0.903653 58.227 2.28604C60.6214 3.66843 62.0963 6.22318 62.0963 8.98796V29.6442C62.0963 29.6443 62.0963 29.6444 62.0963 29.6445C62.0942 33.9243 58.6242 37.3927 54.3445 37.393ZM33.6561 37.393H13.027C8.74655 37.393 5.27655 33.923 5.27655 29.6425C5.27655 25.362 8.74655 21.892 13.027 21.892H33.6561C37.9366 21.892 41.4065 25.362 41.4065 29.6425C41.4065 33.923 37.9366 37.393 33.6561 37.393Z" stroke="black"/>
</g>
<defs>
<filter id="filter0_d" x="0.77655" y="0.743164" width="86.4508" height="86.5215" filterUnits="userSpaceOnUse" color-interpolation-filters="sRGB">
<feFlood flood-opacity="0" result="BackgroundImageFix"/>
<feColorMatrix in="SourceAlpha" type="matrix" values="0 0 0 0 0 0 0 0 0 0 0 0 0 0 0 0 0 0 127 0"/>
<feOffset dy="4"/>
<feGaussianBlur stdDeviation="2"/>
<feColorMatrix type="matrix" values="0 0 0 0 0 0 0 0 0 0 0 0 0 0 0 0 0 0 0.25 0"/>
<feBlend mode="normal" in2="BackgroundImageFix" result="effect1_dropShadow"/>
<feBlend mode="normal" in="SourceGraphic" in2="effect1_dropShadow" result="shape"/>
</filter>
</defs>
</svg>
